# xmcd CD database file
#
# Track frame offsets:
#	150
#	13652
#	27262
#	41175
#	56900
#	76587
#	92597
#	105637
#	113702
#	122850
#	131327
#	148195
#	161660
#	175230
#	202420
#
# Disc length: 4440 seconds
#
# Revision: 2
# Processed by: cddbd v1.5.2PL0 Copyright (c) Steve Scherf et al.
# Submitted via: CDex 1.50
#
DISCID=d111560f
DTITLE=Clara Nunes - BIS - CD2
DYEAR=2006
DGENRE=Samba
TTITLE0=O mar serenou
TTITLE1=Ê, Baiana
TTITLE2=Meu sapato já furou
TTITLE3=Lama
TTITLE4=Canto das três raças
TTITLE5=Nação
TTITLE6=Juízo final
TTITLE7=Sabiá
TTITLE8=Meu guri
TTITLE9=Desencontro
TTITLE10=Apesar de você
TTITLE11=Coisa da antiga
TTITLE12=Coração leviano
TTITLE13=Você passa, eu acho graça
TTITLE14=DATA
EXTD=YEAR: 2006
EXTT0=
EXTT1=
EXTT2=
EXTT3=
EXTT4=
EXTT5=
EXTT6=
EXTT7=
EXTT8=
EXTT9=
EXTT10=
EXTT11=
EXTT12=
EXTT13=
EXTT14=
PLAYORDER=
